<svg height="2030" width="720" xmlns="http://www.w3.org/2000/svg">
<rect height="2030" fill="#555" width="720"></rect>
<text fill="#7f7" font-family="Courier New" font-size="12" xml:space="preserve">
<tspan x="10" y="26"></tspan>
<tspan x="10" y="42">&gt; npmdoc-uglify-js@0.0.6 test /home/travis/build/npmdoc/node-npmdoc-uglify-js</tspan>
<tspan x="10" y="58">&gt; (set -e; export PORT=$(utility2 shServerPortRandom); utility2 test test.js)</tspan>
<tspan x="10" y="74"></tspan>
<tspan x="10" y="90"></tspan>
<tspan x="10" y="106">[MODE_BUILD=npmTest] - 2017-04-08T06:11:16Z - npm-testing /home/travis/build/npmdoc/node-npmdoc-\</tspan>
<tspan x="10" y="122">uglify-js</tspan>
<tspan x="10" y="138"></tspan>
<tspan x="10" y="154"></tspan>
<tspan x="10" y="170">covering $ /home/travis/.nvm/versions/node/v6.10.2/bin/node /home/travis/build/npmdoc/node-npmdo\</tspan>
<tspan x="10" y="186">c-uglify-js/test.js</tspan>
<tspan x="10" y="202">merging file:///home/travis/build/npmdoc/node-npmdoc-uglify-js/tmp/build/test-report.json to tes\</tspan>
<tspan x="10" y="218">t-report</tspan>
<tspan x="10" y="234">&gt; server listening on http-port 59886</tspan>
<tspan x="10" y="250">created apidoc file:///home/travis/build/npmdoc/node-npmdoc-uglify-js/tmp/build/apidoc.html</tspan>
<tspan x="10" y="266"></tspan>
<tspan x="10" y="282"></tspan>
<tspan x="10" y="298">browserTest - created electron entry-page /home/travis/build/npmdoc/node-npmdoc-uglify-js/tmp/el\</tspan>
<tspan x="10" y="314">ectron.15b4c3031ca0.9cb19b2cac1de.html</tspan>
<tspan x="10" y="330"></tspan>
<tspan x="10" y="346">Xlib:  extension "RANDR" missing on display ":99.0".</tspan>
<tspan x="10" y="362">merging file:///home/travis/build/npmdoc/node-npmdoc-uglify-js/tmp/build/test-report.json to tes\</tspan>
<tspan x="10" y="378">t-report</tspan>
<tspan x="10" y="394">Xlib:  extension "RANDR" missing on display ":99.0".</tspan>
<tspan x="10" y="410">[5823:0408/061119:WARNING:audio_manager.cc(314)] Multiple instances of AudioManager detected</tspan>
<tspan x="10" y="426">[5823:0408/061119:WARNING:audio_manager.cc(275)] Multiple instances of AudioManager detected</tspan>
<tspan x="10" y="442">[5843:0408/061119:ERROR:sandbox_linux.cc(343)] InitializeSandbox() called with multiple threads \</tspan>
<tspan x="10" y="458">in process gpu-process. </tspan>
<tspan x="10" y="474">[5823:0408/061119:ERROR:browser_gpu_channel_host_factory.cc(131)] Failed to create channel.</tspan>
<tspan x="10" y="490"></tspan>
<tspan x="10" y="506">browserTest - opened url /home/travis/build/npmdoc/node-npmdoc-uglify-js/tmp/build/apidoc.html</tspan>
<tspan x="10" y="522"></tspan>
<tspan x="10" y="538">[node test-case 1 of 6 passed] - testCase_buildLib_default</tspan>
<tspan x="10" y="554">[node test-case 2 of 6 passed] - testCase_buildReadme_default</tspan>
<tspan x="10" y="570">[node test-case 3 of 6 passed] - testCase_buildTest_default</tspan>
<tspan x="10" y="586"></tspan>
<tspan x="10" y="602">browserTest - created electron entry-page /home/travis/build/npmdoc/node-npmdoc-uglify-js/tmp/el\</tspan>
<tspan x="10" y="618">ectron.15b4c303ab40.e010b33cbe268.html</tspan>
<tspan x="10" y="634"></tspan>
<tspan x="10" y="650">Xlib:  extension "RANDR" missing on display ":99.0".</tspan>
<tspan x="10" y="666">&gt; server listening on http-port 57359</tspan>
<tspan x="10" y="682">merging file:///home/travis/build/npmdoc/node-npmdoc-uglify-js/tmp/build/test-report.json to tes\</tspan>
<tspan x="10" y="698">t-report</tspan>
<tspan x="10" y="714">Xlib:  extension "RANDR" missing on display ":99.0".</tspan>
<tspan x="10" y="730">[5882:0408/061121:WARNING:audio_manager.cc(314)] Multiple instances of AudioManager detected</tspan>
<tspan x="10" y="746">[5882:0408/061121:WARNING:audio_manager.cc(275)] Multiple instances of AudioManager detected</tspan>
<tspan x="10" y="762">[5912:0408/061122:ERROR:sandbox_linux.cc(343)] InitializeSandbox() called with multiple threads \</tspan>
<tspan x="10" y="778">in process gpu-process. </tspan>
<tspan x="10" y="794">[5882:0408/061122:ERROR:browser_gpu_channel_host_factory.cc(131)] Failed to create channel.</tspan>
<tspan x="10" y="810"></tspan>
<tspan x="10" y="826">browserTest - opened url http://127.0.0.1:59886?modeTest=1</tspan>
<tspan x="10" y="842"></tspan>
<tspan x="10" y="858">[5882:0408/061123:INFO:CONSOLE(248)] "----------|-----------|-----------|-----------|-----------\</tspan>
<tspan x="10" y="874">|</tspan>
<tspan x="10" y="890">File      |   % Stmts |% Branches |   % Funcs |   % Lines |</tspan>
<tspan x="10" y="906">----------|-----------|-----------|-----------|-----------|</tspan>
<tspan x="10" y="922">----------|-----------|-----------|-----------|-----------|</tspan>
<tspan x="10" y="938">All files |       100 |       100 |       100 |       100 |</tspan>
<tspan x="10" y="954">----------|-----------|-----------|-----------|-----------|</tspan>
<tspan x="10" y="970">", source: file:///home/travis/build/npmdoc/node-npmdoc-uglify-js/tmp/electron.15b4c303ab40.e010\</tspan>
<tspan x="10" y="986">b33cbe268.html (248)</tspan>
<tspan x="10" y="1002">[5882:0408/061123:INFO:CONSOLE(248)] "created coverage file:///tmp/build/coverage.html/index.htm\</tspan>
<tspan x="10" y="1018">l", source: file:///home/travis/build/npmdoc/node-npmdoc-uglify-js/tmp/electron.15b4c303ab40.e01\</tspan>
<tspan x="10" y="1034">0b33cbe268.html (248)</tspan>
<tspan x="10" y="1050">[node test-case 4 of 6 passed] - testCase_buildApp_default</tspan>
<tspan x="10" y="1066"></tspan>
<tspan x="10" y="1082">browserTest - created screenCapture file:///home/travis/build/npmdoc/node-npmdoc-uglify-js/tmp/b\</tspan>
<tspan x="10" y="1098">uild/screenCapture.npmTest.browser.%2Fhome%2Ftravis%2Fbuild%2Fnpmdoc%2Fnode-npmdoc-uglify-js%2Ft\</tspan>
<tspan x="10" y="1114">mp%2Fbuild%2Fapidoc.html.png</tspan>
<tspan x="10" y="1130"></tspan>
<tspan x="10" y="1146">browserTest - created screenCapture file:///home/travis/build/npmdoc/node-npmdoc-uglify-js/tmp/b\</tspan>
<tspan x="10" y="1162">uild/screenCapture.npmTest.browser.%2Fhome%2Ftravis%2Fbuild%2Fnpmdoc%2Fnode-npmdoc-uglify-js%2Ft\</tspan>
<tspan x="10" y="1178">mp%2Fbuild%2Fapidoc.html.html</tspan>
<tspan x="10" y="1194"></tspan>
<tspan x="10" y="1210">browserTest - exit-code 0 - /home/travis/build/npmdoc/node-npmdoc-uglify-js/tmp/build/apidoc.htm\</tspan>
<tspan x="10" y="1226">l</tspan>
<tspan x="10" y="1242"></tspan>
<tspan x="10" y="1258">[node test-case 5 of 6 passed] - testCase_buildApidoc_default</tspan>
<tspan x="10" y="1274"></tspan>
<tspan x="10" y="1290">browserTest - created screenCapture file:///home/travis/build/npmdoc/node-npmdoc-uglify-js/tmp/b\</tspan>
<tspan x="10" y="1306">uild/screenCapture.npmTest.browser.%2F.png</tspan>
<tspan x="10" y="1322"></tspan>
<tspan x="10" y="1338">browserTest - created screenCapture file:///home/travis/build/npmdoc/node-npmdoc-uglify-js/tmp/b\</tspan>
<tspan x="10" y="1354">uild/screenCapture.npmTest.browser.%2F.html</tspan>
<tspan x="10" y="1370"></tspan>
<tspan x="10" y="1386">browserTest - exit-code 0 - http://127.0.0.1:59886?modeTest=1</tspan>
<tspan x="10" y="1402"></tspan>
<tspan x="10" y="1418"></tspan>
<tspan x="10" y="1434">browserTest - merged coverage from /home/travis/build/npmdoc/node-npmdoc-uglify-js/tmp/coverage.\</tspan>
<tspan x="10" y="1450">npmTest.browser.%2F.json</tspan>
<tspan x="10" y="1466"></tspan>
<tspan x="10" y="1482"></tspan>
<tspan x="10" y="1498">browserTest - merging test-report from /home/travis/build/npmdoc/node-npmdoc-uglify-js/tmp/test-\</tspan>
<tspan x="10" y="1514">report.npmTest.browser.%2F.json</tspan>
<tspan x="10" y="1530"></tspan>
<tspan x="10" y="1546">[node test-case 6 of 6 passed] - testCase_webpage_default</tspan>
<tspan x="10" y="1562">------------------------------|-----------|-----------|-----------|-----------|</tspan>
<tspan x="10" y="1578">File                          |   % Stmts |% Branches |   % Funcs |   % Lines |</tspan>
<tspan x="10" y="1594">------------------------------|-----------|-----------|-----------|-----------|</tspan>
<tspan x="10" y="1610">   node-npmdoc-uglify-js/     |       100 |       100 |       100 |       100 |</tspan>
<tspan x="10" y="1626">      example.js              |       100 |       100 |       100 |       100 |</tspan>
<tspan x="10" y="1642">      lib.npmdoc_uglify_js.js |       100 |       100 |       100 |       100 |</tspan>
<tspan x="10" y="1658">      test.js                 |       100 |       100 |       100 |       100 |</tspan>
<tspan x="10" y="1674">------------------------------|-----------|-----------|-----------|-----------|</tspan>
<tspan x="10" y="1690">All files                     |       100 |       100 |       100 |       100 |</tspan>
<tspan x="10" y="1706">------------------------------|-----------|-----------|-----------|-----------|</tspan>
<tspan x="10" y="1722"></tspan>
<tspan x="10" y="1738">created coverage file:///home/travis/build/npmdoc/node-npmdoc-uglify-js/tmp/build/coverage.html/\</tspan>
<tspan x="10" y="1754">index.html</tspan>
<tspan x="10" y="1770">merging file:///home/travis/build/npmdoc/node-npmdoc-uglify-js/tmp/build/test-report.json to tes\</tspan>
<tspan x="10" y="1786">t-report</tspan>
<tspan x="10" y="1802"></tspan>
<tspan x="10" y="1818">-------------------------------------------------------</tspan>
<tspan x="10" y="1834">| test-report - buildNpmdoc - node - linux v6.10.2 - 2017-04-08T06:10:35.471Z</tspan>
<tspan x="10" y="1850">|   59904 ms            0 failed        6 passed      |</tspan>
<tspan x="10" y="1866">-------------------------------------------------------</tspan>
<tspan x="10" y="1882"></tspan>
<tspan x="10" y="1898">created test-report file:///home/travis/build/npmdoc/node-npmdoc-uglify-js/tmp/build/test-report\</tspan>
<tspan x="10" y="1914">.html</tspan>
<tspan x="10" y="1930"></tspan>
<tspan x="10" y="1946"></tspan>
<tspan x="10" y="1962">npmTest - 0 failed tests</tspan>
<tspan x="10" y="1978"></tspan>
<tspan x="10" y="1994"></tspan>
<tspan x="10" y="2010">[MODE_BUILD=npmTest] - 2017-04-08T06:11:38Z - EXIT_CODE - 0</tspan>
</text>
</svg>
